<svg id="Layer_1" data-name="Layer 1" xmlns="http://www.w3.org/2000/svg" xmlns:xlink="http://www.w3.org/1999/xlink" viewBox="0 0 843.6 817.75"><defs><style>.cls-1{fill:none;}.cls-2{clip-path:url(#clip-path);}.cls-3{fill:#fff;}.cls-4{clip-path:url(#clip-path-2);}.cls-5{clip-path:url(#clip-path-3);}.cls-6{clip-path:url(#clip-path-4);}</style><clipPath id="clip-path"><rect class="cls-1" x="436.4" y="243.41" width="407.2" height="574.34"/></clipPath><clipPath id="clip-path-2"><rect class="cls-1" x="203.88" width="431.82" height="526.37"/></clipPath><clipPath id="clip-path-3"><rect class="cls-1" x="369.97" y="652.12" width="99.65" height="165.63"/></clipPath><clipPath id="clip-path-4"><rect class="cls-1" y="243.41" width="414.26" height="574.34"/></clipPath></defs><title>darkgpt-logo-white</title><g class="cls-2"><path class="cls-3" d="M656.07,375.8C568.61,398,379.36,474.74,456,682.08,477,739,503.74,808.38,666.88,817.75c0,0,173.14.86,176.72-159.53,0,0-7.22-131.4-150.55-120.31,0,0-64.92,5.12-61.28,81.91,0,0,9.9,60.59,64.87,53.75,0,0,75.69-9,30.66-68.28-1.82-2.41-12.62-10.23,9-8.1s73.06,47.4,50.51,117.32c0,0-17.25,64.44-91.25,76.1-1.69.24-3.41.49-5.23.69C611.92,800.68,540.72,730.76,556,683.8c0,0,8.12-23.9,30.65-23.9,0,0,29,8.56,18.95-17-6.53-16.62-25.26-48.63-69.41-26.48,0,0-63.11,30.73-21.67,100.7l2.72,7.7s-4.54,11.9-10.81-1.72-64.36-77.58-25.22-161.29c7.92-16.95,34.22-52.85,53.16-54.57,0,0,19.63-7.25,46.41,8.8l2.29,1.43c27.93,17.93,67.59.86,73.92-12s24.82-46.88,52.25-44.38c8.26.74,7,2.7,24.34,21.33,5.49,5.89,24.35,15.39,25.26-20.47,0,0,6.58-23.58-14.45-39.26-4.32-3.23-16.18-9.37-19.81-9.37,0,0-11.76-3.44-1.81-9.38,0,0,82-46.95,7.23-139.1-13.46-16.53-61.08-36-86.56,16.22-4.71,9.66-7.6,28.48,27.08,34.14,6.23,1,15.31,6,14.4-19.65,0,0,.91-13.63,16.22-9.38,0,0,34.9,18-3.59,62.26-8.05,9.25-32,24.93-41.52,27.35"/></g><g class="cls-4"><path class="cls-3" d="M418.66,402c-9.46-.66-7.43-13.46-7.43-13.46.69-35.21-22.32-83.19-22.32-83.19-18.9-46.05-8.56-103.08,1.39-135.66,30.53-100.18,28.36-103.66,9.46-132.47C362-20.17,325.2,1.93,308.46,17.45c-29.62,27.47-1.34,42.24-1.34,42.24,20.29,16.62,28.59,3.81,30.45-3.24,4.24-16.12,16.22-15.35,16.22-15.35,18.9,0,18.26,14.75,18.26,14.75C376.07,73.12,341,100,341,100,311.18,124.29,320,155,320,155c8.79,22.39-3.67,21.74-3.67,21.74-6.4-1.27-7.87-7.33-9.86-10.24-43.25-63.33-89.91-4.46-89.91-4.46-12.86,25.59,17.08,21.08,25.68,22.39,35.6,5.41,26.39,58.22,26.39,58.22-8.14,80.64,20.28,103,80.44,138.86s56.45,110.72,56.45,110.72c-3,31.32,13.18,28.13,13.18,28.13h5.54s16.18,3.19,13.15-28.13c0,0-3.72-74.86,56.45-110.72s88.58-58.22,80.48-138.86c0,0-9.21-52.81,26.34-58.22,8.65-1.31,38.53,3.2,25.69-22.39,0,0-46.66-58.87-89.92,4.46-2,2.91-3.45,9-9.85,10.24,0,0-12.46.65-3.68-21.74,0,0,8.82-30.7-20.93-55.06,0,0-35.17-26.85-31.11-44.12,0,0-.68-14.75,18.26-14.75,0,0,11.94-.77,16.22,15.35,1.86,7,10.12,19.86,30.41,3.24,0,0,28.32-14.77-1.34-42.24-16.74-15.52-53.5-37.62-91.27,19.81-18.93,28.81-21.1,32.29,9.43,132.47,10,32.58,20.29,89.61,1.39,135.66,0,0-23,48-22.32,83.19,0,0,2,12.8-7.43,13.46Z"/></g><g class="cls-5"><path class="cls-3" d="M459.67,737.55c15.87,44.26-.78,80.2-37.2,80.2s-53-35.94-37.15-80.2,32.48-80.19,37.15-80.19,21.37,35.91,37.2,80.19"/></g><g class="cls-6"><path class="cls-3" d="M187.53,375.8C275,398,464.26,474.74,387.66,682.08c-21.07,56.95-47.8,126.3-210.94,135.67,0,0-173.13.86-176.72-159.53,0,0,7.22-131.4,150.56-120.31,0,0,64.92,5.12,61.28,81.91,0,0-9.9,60.59-64.88,53.75,0,0-75.69-9-30.66-68.28,1.77-2.41,12.62-10.23-9-8.1s-73,47.4-50.51,117.32c0,0,17.25,64.44,91.26,76.1,1.68.24,3.42.49,5.19.69,78.46,9.38,149.64-60.54,134.34-107.5,0,0-8.14-23.9-30.67-23.9,0,0-29,8.56-19-17,6.54-16.62,25.26-48.63,69.43-26.48,0,0,63.1,30.73,21.67,100.7l-2.73,7.7s4.5,11.9,10.81-1.72,64.36-77.58,25.21-161.29c-8-16.95-34.2-52.85-53.15-54.57,0,0-19.64-7.25-46.41,8.8l-2.29,1.43c-27.94,17.93-67.64.86-73.91-12s-24.84-46.88-52.3-44.38c-8.25.74-7,2.7-24.3,21.33-5.5,5.89-24.36,15.39-25.27-20.47,0,0-6.56-23.58,14.45-39.26,4.33-3.23,16.18-9.37,19.81-9.37,0,0,11.73-3.44,1.82-9.38,0,0-82-46.95-7.22-139.1,13.41-16.53,61.06-36,86.54,16.22,4.72,9.66,7.62,28.48-27.07,34.14-6.19,1-15.32,6-14.41-19.65,0,0-.91-13.63-16.22-9.38,0,0-34.9,18,3.59,62.26,8.05,9.25,32,24.93,41.52,27.35"/></g></svg>