<svg version="1.1" id="Layer_1" xmlns="http://www.w3.org/2000/svg" xmlns:xlink="http://www.w3.org/1999/xlink" x="0px" y="0px" viewBox="0 0 843.6 817.8" style="enable-background:new 0 0 843.6 817.8;" xml:space="preserve">
<style type="text/css">
	.st0{clip-path:url(#SVGID_2_);fill:#f10000;}
	.st1{clip-path:url(#SVGID_4_);fill:#f10000;}
	.st2{clip-path:url(#SVGID_6_);fill:#f10000;}
	.st3{clip-path:url(#SVGID_8_);fill:#f10000;}
</style>
<g>
	<defs fill="#000000">
		<rect id="SVGID_1_" x="436.4" y="243.4" width="407.2" height="574.3" fill="#000000"/>
	</defs>
	<clipPath id="SVGID_2_" fill="#000000">
		<use xlink:href="#SVGID_1_" style="overflow:visible;" fill="#000000"/>
	</clipPath>
	<path class="st0" d="M656.1,375.8c-87.5,22.1-276.7,98.9-200.1,306.3C477,739,503.7,808.4,666.9,817.8c0,0,173.1,0.9,176.7-159.5   c0,0-7.2-131.4-150.5-120.3c0,0-64.9,5.1-61.3,81.9c0,0,9.9,60.6,64.9,53.8c0,0,75.7-9,30.7-68.3c-1.8-2.4-12.6-10.2,9-8.1   c21.7,2.2,73.1,47.4,50.5,117.3c0,0-17.3,64.4-91.3,76.1c-1.7,0.2-3.4,0.5-5.2,0.7c-78.4,9.4-149.6-60.5-134.3-107.5   c0,0,8.1-23.9,30.7-23.9c0,0,29,8.6,18.9-17c-6.5-16.6-25.3-48.6-69.4-26.5c0,0-63.1,30.7-21.7,100.7l2.7,7.7   c0,0-4.5,11.9-10.8-1.7c-6.3-13.6-64.4-77.6-25.2-161.3c7.9-16.9,34.2-52.8,53.2-54.6c0,0,19.6-7.3,46.4,8.8   c0.8,0.5,1.5,0.9,2.3,1.4c27.9,17.9,67.6,0.9,73.9-11.9c6.3-12.8,24.8-46.9,52.2-44.4c8.3,0.7,7,2.7,24.3,21.3   c5.5,5.9,24.3,15.4,25.3-20.5c0,0,6.6-23.6-14.4-39.3c-4.3-3.2-16.2-9.4-19.8-9.4c0,0-11.8-3.4-1.8-9.4c0,0,82-46.9,7.2-139.1   c-13.5-16.5-61.1-36-86.6,16.2c-4.7,9.7-7.6,28.5,27.1,34.1c6.2,1,15.3,6,14.4-19.6c0,0,0.9-13.6,16.2-9.4c0,0,34.9,18-3.6,62.3   C689.5,357.7,665.6,373.4,656.1,375.8" fill="#000000"/>
</g>
<g>
	<defs fill="#000000">
		<rect id="SVGID_3_" x="203.9" width="431.8" height="526.4" fill="#000000"/>
	</defs>
	<clipPath id="SVGID_4_" fill="#000000">
		<use xlink:href="#SVGID_3_" style="overflow:visible;" fill="#000000"/>
	</clipPath>
	<path class="st1" d="M418.7,402c-9.5-0.7-7.4-13.5-7.4-13.5c0.7-35.2-22.3-83.2-22.3-83.2c-18.9-46-8.6-103.1,1.4-135.7   c30.5-100.2,28.4-103.7,9.5-132.5C362-20.2,325.2,1.9,308.5,17.4c-29.6,27.5-1.3,42.2-1.3,42.2c20.3,16.6,28.6,3.8,30.4-3.2   c4.2-16.1,16.2-15.4,16.2-15.4c18.9,0,18.3,14.7,18.3,14.7c4,17.3-31.1,44.1-31.1,44.1c-29.8,24.3-21,55.1-21,55.1   c8.8,22.4-3.7,21.7-3.7,21.7c-6.4-1.3-7.9-7.3-9.9-10.2c-43.3-63.3-89.9-4.5-89.9-4.5c-12.9,25.6,17.1,21.1,25.7,22.4   c35.6,5.4,26.4,58.2,26.4,58.2c-8.1,80.6,20.3,103,80.4,138.9c60.2,35.9,56.4,110.7,56.4,110.7c-3,31.3,13.2,28.1,13.2,28.1h5.5   c0,0,16.2,3.2,13.2-28.1c0,0-3.7-74.9,56.4-110.7c60.2-35.8,88.6-58.2,80.5-138.9c0,0-9.2-52.8,26.3-58.2   c8.6-1.3,38.5,3.2,25.7-22.4c0,0-46.7-58.9-89.9,4.5c-2,2.9-3.5,9-9.9,10.2c0,0-12.5,0.6-3.7-21.7c0,0,8.8-30.7-20.9-55.1   c0,0-35.2-26.8-31.1-44.1c0,0-0.7-14.7,18.3-14.7c0,0,11.9-0.8,16.2,15.4c1.9,7,10.1,19.9,30.4,3.2c0,0,28.3-14.8-1.3-42.2   c-16.7-15.5-53.5-37.6-91.3,19.8c-18.9,28.8-21.1,32.3,9.4,132.5c9.9,32.6,20.3,89.6,1.4,135.7c0,0-23,48-22.3,83.2   c0,0,2,12.8-7.4,13.5H418.7z" fill="#000000"/>
</g>
<g>
	<defs fill="#000000">
		<rect id="SVGID_5_" x="370" y="652.1" width="99.6" height="165.6" fill="#000000"/>
	</defs>
	<clipPath id="SVGID_6_" fill="#000000">
		<use xlink:href="#SVGID_5_" style="overflow:visible;" fill="#000000"/>
	</clipPath>
	<path class="st2" d="M459.7,737.6c15.9,44.3-0.8,80.2-37.2,80.2c-36.4,0-53-35.9-37.1-80.2c15.8-44.3,32.5-80.2,37.1-80.2   C427.2,657.4,443.8,693.3,459.7,737.6" fill="#000000"/>
</g>
<g>
	<defs fill="#000000">
		<rect id="SVGID_7_" y="243.4" width="414.3" height="574.3" fill="#000000"/>
	</defs>
	<clipPath id="SVGID_8_" fill="#000000">
		<use xlink:href="#SVGID_7_" style="overflow:visible;" fill="#000000"/>
	</clipPath>
	<path class="st3" d="M187.5,375.8c87.4,22.1,276.7,98.9,200.1,306.3c-21.1,56.9-47.8,126.3-210.9,135.7c0,0-173.1,0.9-176.7-159.5   c0,0,7.2-131.4,150.6-120.3c0,0,64.9,5.1,61.3,81.9c0,0-9.9,60.6-64.9,53.8c0,0-75.7-9-30.7-68.3c1.8-2.4,12.6-10.2-9-8.1   c-21.7,2.2-73,47.4-50.5,117.3c0,0,17.3,64.4,91.3,76.1c1.7,0.2,3.4,0.5,5.2,0.7c78.5,9.4,149.6-60.5,134.3-107.5   c0,0-8.1-23.9-30.7-23.9c0,0-29,8.6-18.9-17c6.5-16.6,25.3-48.6,69.4-26.5c0,0,63.1,30.7,21.7,100.7l-2.7,7.7   c0,0,4.5,11.9,10.8-1.7c6.3-13.6,64.4-77.6,25.2-161.3c-7.9-16.9-34.2-52.8-53.1-54.6c0,0-19.6-7.3-46.4,8.8   c-0.8,0.5-1.5,0.9-2.3,1.4c-27.9,17.9-67.6,0.9-73.9-11.9c-6.3-12.8-24.8-46.9-52.3-44.4c-8.3,0.7-7,2.7-24.3,21.3   c-5.5,5.9-24.4,15.4-25.3-20.5c0,0-6.6-23.6,14.4-39.3c4.3-3.2,16.2-9.4,19.8-9.4c0,0,11.7-3.4,1.8-9.4c0,0-82-46.9-7.2-139.1   c13.4-16.5,61.1-36,86.5,16.2c4.7,9.7,7.6,28.5-27.1,34.1c-6.2,1-15.3,6-14.4-19.6c0,0-0.9-13.6-16.2-9.4c0,0-34.9,18,3.6,62.3   C154.1,357.7,178,373.4,187.5,375.8" fill="#000000"/>
</g>
</svg>