<svg xmlns="http://www.w3.org/2000/svg" version="1.1" xmlns:xlink="http://www.w3.org/1999/xlink" xmlns:svgjs="http://svgjs.dev/svgjs" width="1500" height="511" viewBox="0 0 1500 511"><g transform="matrix(1,0,0,1,-0.9090909090911055,-0.8665150391738337)"><svg viewBox="0 0 396 135" data-background-color="#8d021f" preserveAspectRatio="xMidYMid meet" height="511" width="1500" xmlns="http://www.w3.org/2000/svg" xmlns:xlink="http://www.w3.org/1999/xlink"><g id="tight-bounds" transform="matrix(1,0,0,1,0.24000000000003752,0.2289227598600121)"><svg viewBox="0 0 395.5199999999999 134.54215448027998" height="134.54215448027998" width="395.5199999999999"><g><svg viewBox="0 0 667.812121313107 227.16646842008376" height="134.54215448027998" width="395.5199999999999"><g transform="matrix(1,0,0,1,272.29212131310703,44.836032459288404)"><svg viewBox="0 0 395.52 137.49440350150695" height="137.49440350150695" width="395.52"><g id="textblocktransform"><svg viewBox="0 0 395.52 137.49440350150695" height="137.49440350150695" width="395.52" id="textblock"><g><svg viewBox="0 0 395.52 95.57441860465116" height="95.57441860465116" width="395.52"><g transform="matrix(1,0,0,1,0,0)"><svg width="395.52" viewBox="2.6 -32.75 138.14000000000001 33.25" height="95.57441860465116" data-palette-color="#ffffff"><g class="wordmark-text-0" data-fill-palette-color="primary" id="text-0"><path d="M3.55 0L3.55-27.25 2.6-30Q3.75-30.55 5.53-30.93 7.3-31.3 9.35-31.3L9.35-31.3Q13.6-31.3 16.3-29.18 19-27.05 20.3-23.5 21.6-19.95 21.6-15.65L21.6-15.65Q21.6-11.05 20.2-7.53 18.8-4 15.7-2 12.6 0 7.5 0L7.5 0 3.55 0ZM7.05-27.85L7.05-3.2 8.05-3.2Q11.8-3.2 14-4.83 16.2-6.45 17.15-9.25 18.1-12.05 18.1-15.65L18.1-15.65Q18.1-21.8 15.7-24.95 13.3-28.1 9.4-28.1L9.4-28.1Q8.05-28.1 7.05-27.85L7.05-27.85ZM29.25-19.85L29.5-23Q31.6-23 33.7-22.63 35.8-22.25 37.55-21.33 39.3-20.4 40.35-18.68 41.4-16.95 41.4-14.25L41.4-14.25 41.4-4.25 42.75-1.95Q40.45-0.65 38.17-0.08 35.9 0.5 34 0.5L34 0.5Q31.55 0.5 30.05-0.13 28.55-0.75 27.7-1.55L27.7-1.55Q26.9-2.4 26.3-3.68 25.7-4.95 25.7-6.55L25.7-6.55Q25.7-9.05 26.75-10.68 27.8-12.3 29.57-13.2 31.35-14.1 33.57-14.48 35.8-14.85 38.2-14.85L38.2-14.85Q38.1-16.5 37.22-17.48 36.35-18.45 35.02-18.95 33.7-19.45 32.2-19.63 30.7-19.8 29.25-19.85L29.25-19.85ZM38.2-3.35L38.2-11.85Q37-11.85 35.45-11.7 33.9-11.55 32.45-11.08 31-10.6 30.05-9.6 29.1-8.6 29.1-6.9L29.1-6.9Q29.1-5.75 29.45-4.98 29.8-4.2 30.25-3.8L30.25-3.8Q31.05-3 32.07-2.75 33.1-2.5 34.1-2.5L34.1-2.5Q35.3-2.5 36.3-2.75 37.3-3 38.2-3.35L38.2-3.35ZM47.5 0L47.5-16.65 46.05-18.9Q48.25-20.75 50.92-21.68 53.6-22.6 56.35-23L56.35-23 56.9-20Q54.5-19.65 53.05-19.18 51.6-18.7 50.7-18.2L50.7-18.2 50.7 0 47.5 0ZM59.84-32.75L64.04-32.75 64.04 0 60.84 0 60.84-29.6 59.84-32.75ZM66.09-10.85L64.74-10.85Q65.09-13.6 66.37-16.07 67.64-18.55 69.79-20.38 71.94-22.2 74.74-23L74.74-23 75.84-20Q73.24-19.25 71.29-17.53 69.34-15.8 68.44-13.05L68.44-13.05 76.39-1.3 73.69 0.5 66.09-10.85ZM89.29 0.5L89.29 0.5Q88.14 0.5 86.32 0.23 84.49-0.05 82.44-0.93 80.39-1.8 78.44-3.55L78.44-3.55 80.24-5.85 80.24-19.25Q80.24-22.55 81.04-25.3 81.84-28.05 83.92-29.68 85.99-31.3 89.79-31.3L89.79-31.3Q91.59-31.3 92.99-30.95 94.39-30.6 95.79-29.85L95.79-29.85 94.54-26.9Q93.29-27.55 92.09-27.83 90.89-28.1 89.89-28.1L89.89-28.1Q87.24-28.1 85.92-26.9 84.59-25.7 84.17-23.73 83.74-21.75 83.74-19.35L83.74-19.35 83.74-4.25Q85.09-3.4 86.44-3.05 87.79-2.7 89.49-2.7L89.49-2.7Q91.09-2.7 92.24-3 93.39-3.3 94.34-3.85L94.34-3.85 94.34-14.2 97.84-14.2 97.84-1.5Q95.84-0.55 93.89-0.03 91.94 0.5 89.29 0.5ZM103.99-26.7L102.59-29.45Q104.49-30.3 106.96-30.8 109.44-31.3 111.44-31.3L111.44-31.3Q113.49-31.3 115.24-30.68 116.99-30.05 118.09-28.9L118.09-28.9Q119.84-27.15 120.09-25.15 120.34-23.15 120.34-21.25L120.34-21.25 120.34-16.15 107.49-16.15 107.49 0 103.99 0 103.99-26.7ZM107.49-27.5L107.49-19.35 116.94-19.35 116.94-21.2Q116.94-22.25 116.76-23.7 116.59-25.15 115.59-26.4L115.59-26.4Q114.49-27.6 113.31-27.85 112.14-28.1 111.24-28.1L111.24-28.1Q110.24-28.1 109.19-27.93 108.14-27.75 107.49-27.5L107.49-27.5ZM130.24 0L130.24-27.6 123.69-27.6 122.74-30.8 140.74-30.8 140.74-27.6 133.69-27.6 133.69 0 130.24 0Z" fill="#ffffff" data-fill-palette-color="primary"></path></g></svg></g></svg></g><g transform="matrix(1,0,0,1,0,118.13724505116278)"><svg viewBox="0 0 232.209792 19.357158450344148" height="19.357158450344148" width="232.209792"><g transform="matrix(1,0,0,1,0,0)"><svg width="232.209792" viewBox="0.1 -37.6 457.59999999999997 38.15" height="19.357158450344148" data-palette-color="#ffffff"><path d="M14.65 0L10.85 0 10.85-13.45 0.1-32.5 4.35-32.5 13.3-16.5 22.2-32.5 25.25-32.5 14.65-13.7 14.65 0ZM37.85 0.5Q32.65 0.5 29.92-2.9 27.2-6.3 27.2-12.5L27.2-12.5Q27.2-18.7 29.92-22.1 32.65-25.5 37.85-25.5L37.85-25.5Q43.05-25.5 45.77-22.1 48.5-18.7 48.5-12.5L48.5-12.5Q48.5-6.35 45.72-2.93 42.95 0.5 37.85 0.5L37.85 0.5ZM37.85-1.7Q41.35-1.7 43-4.38 44.65-7.05 44.65-12.5L44.65-12.5Q44.65-17.9 43-20.6 41.35-23.3 37.85-23.3L37.85-23.3Q34.35-23.3 32.7-20.63 31.05-17.95 31.05-12.5L31.05-12.5Q31.05-7.05 32.7-4.38 34.35-1.7 37.85-1.7L37.85-1.7ZM61.45 0.5Q57.8 0.5 55.8-1.53 53.8-3.55 53.8-7.55L53.8-7.55 53.8-25 57.45-25 57.45-8.3Q57.45-2.15 62.65-2.15L62.65-2.15Q64.45-2.15 65.75-2.73 67.05-3.3 67.82-3.95 68.59-4.6 68.59-4.7L68.59-4.7 68.59-25 72.25-25 72.25 0 69.2 0 68.7-2.4Q68.05-1.5 66.3-0.5 64.55 0.5 61.45 0.5L61.45 0.5ZM79.69 0L79.69-25 82.39-25 82.94-19.85Q82.94-20.15 83.52-21.58 84.09-23 85.29-24.25 86.49-25.5 88.39-25.5L88.39-25.5Q89.34-25.5 90.54-25.18 91.74-24.85 92.09-24.7L92.09-24.7 91.74-21.95Q91.39-22.1 90.17-22.4 88.94-22.7 87.99-22.7L87.99-22.7Q86.54-22.7 85.52-21.73 84.49-20.75 83.99-19.65 83.49-18.55 83.34-18L83.34-18 83.34 0 79.69 0ZM108.79 0L108.79-32.5 118.69-32.5Q125.69-32.5 129.56-28.28 133.44-24.05 133.44-16.15L133.44-16.15Q133.44-8.3 129.61-4.15 125.79 0 118.69 0L118.69 0 108.79 0ZM112.59-2.4L118.74-2.4Q129.34-2.4 129.34-16.15L129.34-16.15Q129.34-30.1 118.69-30.1L118.69-30.1 112.59-30.1 112.59-2.4ZM144.69 0.5Q141.39 0.5 139.39-1.13 137.39-2.75 137.39-5.65L137.39-5.65Q137.39-13 151.54-14.5L151.54-14.5 151.54-17.15Q151.54-20.7 150.39-22 149.24-23.3 146.34-23.3L146.34-23.3Q145.04-23.3 143.69-22.83 142.34-22.35 141.41-21.83 140.49-21.3 140.24-21.15L140.24-21.15 139.84-23.2Q140.09-23.4 141.11-23.95 142.14-24.5 143.71-25 145.29-25.5 146.89-25.5L146.89-25.5Q151.19-25.5 153.19-23.7 155.19-21.9 155.19-17.35L155.19-17.35 155.19-5.1Q155.19-3.1 155.56-2.4 155.94-1.7 156.49-1.7L156.49-1.7Q156.94-1.7 157.59-1.88 158.24-2.05 158.44-2.15L158.44-2.15 158.59-0.45Q158.19-0.3 156.89 0.1 155.59 0.5 154.69 0.5L154.69 0.5Q153.39 0.5 152.69-0.33 151.99-1.15 151.84-3.25L151.84-3.25 151.79-3.25Q151.79-3.05 150.99-2.1 150.19-1.15 148.61-0.33 147.04 0.5 144.69 0.5L144.69 0.5ZM145.79-1.7Q147.59-1.7 148.89-2.5 150.19-3.3 150.86-4.25 151.54-5.2 151.54-5.35L151.54-5.35 151.54-12.65Q146.99-12.15 144.06-10.7 141.14-9.25 141.14-6.1L141.14-6.1Q141.14-3.95 142.39-2.83 143.64-1.7 145.79-1.7L145.79-1.7ZM163.33 0L163.33-25 166.03-25 166.58-19.85Q166.58-20.15 167.16-21.58 167.73-23 168.93-24.25 170.13-25.5 172.03-25.5L172.03-25.5Q172.98-25.5 174.18-25.18 175.38-24.85 175.73-24.7L175.73-24.7 175.38-21.95Q175.03-22.1 173.81-22.4 172.58-22.7 171.63-22.7L171.63-22.7Q170.18-22.7 169.16-21.73 168.13-20.75 167.63-19.65 167.13-18.55 166.98-18L166.98-18 166.98 0 163.33 0ZM183.43 0L179.78 0 179.78-37.4 183.43-37.6 183.43-13.55 186.48-15.65 193.93-25 196.68-25 188.43-14.75 197.73 0 193.58 0 185.63-12.6 183.43-11.25 183.43 0ZM223.73 0L220.23 0 211.28-32.5 215.28-32.5 222.68-4.35 230.63-32.5 233.98-32.5 242.08-4.4 249.28-32.5 252.08-32.5 243.33 0 239.83 0 231.73-27.7 223.73 0ZM262.72 0.5Q257.72 0.5 254.87-2.63 252.02-5.75 252.02-12L252.02-12Q252.02-18.3 254.77-21.9 257.52-25.5 262.27-25.5L262.27-25.5Q266.57-25.5 268.9-22.53 271.22-19.55 271.22-14.1L271.22-14.1Q271.22-13.15 271.12-12.55 271.02-11.95 270.97-11.8L270.97-11.8 255.82-11.8Q255.82-1.7 263.12-1.7L263.12-1.7Q265.12-1.7 266.55-2.43 267.97-3.15 268.77-3.98 269.57-4.8 269.57-4.95L269.57-4.95 271.02-3.75Q271.02-3.55 270.07-2.48 269.12-1.4 267.27-0.45 265.42 0.5 262.72 0.5L262.72 0.5ZM255.87-13.9L267.82-13.9 267.87-14.85Q267.87-23.35 262.27-23.35L262.27-23.35Q259.32-23.35 257.72-21.03 256.12-18.7 255.87-13.9L255.87-13.9ZM286.47 0.55Q283.87 0.55 282.27-0.28 280.67-1.1 279.87-1.95L279.87-1.95 279.17 0 276.57 0 276.57-37.4 280.22-37.6 280.22-22.15 280.27-22.15Q280.27-22.3 281-23.18 281.72-24.05 283.2-24.8 284.67-25.55 286.92-25.55L286.92-25.55Q291.37-25.55 294.07-22.28 296.77-19 296.77-13.2L296.77-13.2Q296.77-6.9 294.12-3.18 291.47 0.55 286.47 0.55L286.47 0.55ZM285.52-1.85Q289.37-1.85 291.15-4.67 292.92-7.5 292.92-13.1L292.92-13.1Q292.92-18.3 291.12-20.73 289.32-23.15 285.87-23.15L285.87-23.15Q283.37-23.15 282.02-21.85 280.67-20.55 280.22-19.55L280.22-19.55 280.22-4.1Q280.57-3.45 281.92-2.65 283.27-1.85 285.52-1.85L285.52-1.85ZM317.72 0L314.97 0 315.12-32.5 315.22-32.35 315.17-32.5 319.82-32.5 331.27-4.65 331.32-4.65 342.77-32.5 347.17-32.5 347.32 0 343.62 0 343.47-27.85 343.42-27.85 332.17 0 329.12 0 317.82-27.85 317.72 0ZM364.56 0.5Q359.56 0.5 356.71-2.63 353.86-5.75 353.86-12L353.86-12Q353.86-18.3 356.61-21.9 359.36-25.5 364.11-25.5L364.11-25.5Q368.41-25.5 370.74-22.53 373.06-19.55 373.06-14.1L373.06-14.1Q373.06-13.15 372.96-12.55 372.86-11.95 372.81-11.8L372.81-11.8 357.66-11.8Q357.66-1.7 364.96-1.7L364.96-1.7Q366.96-1.7 368.39-2.43 369.81-3.15 370.61-3.98 371.41-4.8 371.41-4.95L371.41-4.95 372.86-3.75Q372.86-3.55 371.91-2.48 370.96-1.4 369.11-0.45 367.26 0.5 364.56 0.5L364.56 0.5ZM357.71-13.9L369.66-13.9 369.71-14.85Q369.71-23.35 364.11-23.35L364.11-23.35Q361.16-23.35 359.56-21.03 357.96-18.7 357.71-13.9L357.71-13.9ZM378.41 0L378.41-25 381.41-25 381.86-22.6Q382.66-23.55 384.36-24.53 386.06-25.5 389.26-25.5L389.26-25.5Q392.86-25.5 394.86-23.48 396.86-21.45 396.86-17.45L396.86-17.45 396.86 0 393.21 0 393.21-16.7Q393.21-19.9 391.91-21.38 390.61-22.85 388.06-22.85L388.06-22.85Q386.26-22.85 384.91-22.3 383.56-21.75 382.79-21.1 382.01-20.45 382.01-20.35L382.01-20.35 382.01 0 378.41 0ZM410.16 0.5Q407.46 0.5 406.16-1.18 404.86-2.85 404.86-6.7L404.86-6.7 404.86-22.55 402.26-22.55 402.26-24.65 404.86-24.95 406.21-32.9 408.51-32.9 408.51-25 414.91-25 414.91-22.55 408.51-22.55 408.51-7.6Q408.51-4.35 409.13-3.13 409.76-1.9 411.31-1.9L411.31-1.9Q412.56-1.9 413.56-2.15 414.56-2.4 414.56-2.45L414.56-2.45 414.81-0.45Q414.71-0.35 414.18-0.13 413.66 0.1 412.63 0.3 411.61 0.5 410.16 0.5L410.16 0.5ZM429.06 0.5Q423.86 0.5 421.13-2.9 418.41-6.3 418.41-12.5L418.41-12.5Q418.41-18.7 421.13-22.1 423.86-25.5 429.06-25.5L429.06-25.5Q434.26-25.5 436.98-22.1 439.71-18.7 439.71-12.5L439.71-12.5Q439.71-6.35 436.93-2.93 434.16 0.5 429.06 0.5L429.06 0.5ZM429.06-1.7Q432.56-1.7 434.21-4.38 435.86-7.05 435.86-12.5L435.86-12.5Q435.86-17.9 434.21-20.6 432.56-23.3 429.06-23.3L429.06-23.3Q425.56-23.3 423.91-20.63 422.26-17.95 422.26-12.5L422.26-12.5Q422.26-7.05 423.91-4.38 425.56-1.7 429.06-1.7L429.06-1.7ZM445.3 0L445.3-25 448-25 448.55-19.85Q448.55-20.15 449.13-21.58 449.7-23 450.9-24.25 452.1-25.5 454-25.5L454-25.5Q454.95-25.5 456.15-25.18 457.35-24.85 457.7-24.7L457.7-24.7 457.35-21.95Q457-22.1 455.78-22.4 454.55-22.7 453.6-22.7L453.6-22.7Q452.15-22.7 451.13-21.73 450.1-20.75 449.6-19.65 449.1-18.55 448.95-18L448.95-18 448.95 0 445.3 0Z" opacity="1" transform="matrix(1,0,0,1,0,0)" fill="#ffffff" class="slogan-text-1" data-fill-palette-color="secondary" id="text-1"></path></svg></g></svg></g></svg></g></svg></g><g><svg viewBox="0 0 227.16646842008376 227.16646842008376" height="227.16646842008376" width="227.16646842008376"><g><svg></svg></g><g id="icon-0"><svg viewBox="0 0 227.16646842008376 227.16646842008376" height="227.16646842008376" width="227.16646842008376"><g><path d="M0 113.583c0-62.73 50.853-113.583 113.583-113.583 62.73 0 113.583 50.853 113.583 113.583 0 62.73-50.853 113.583-113.583 113.583-62.73 0-113.583-50.853-113.583-113.583zM113.583 218.547c57.97 0 104.964-46.994 104.964-104.964 0-57.97-46.994-104.964-104.964-104.964-57.97 0-104.964 46.994-104.964 104.964 0 57.97 46.994 104.964 104.964 104.964z" data-fill-palette-color="accent" fill="#ffffff" stroke="transparent"></path></g><g transform="matrix(1,0,0,1,70.72038875869669,48.00426581728422)"><svg viewBox="0 0 85.7256909026904 131.15793678551532" height="131.15793678551532" width="85.7256909026904"><g><svg xmlns="http://www.w3.org/2000/svg" xmlns:xlink="http://www.w3.org/1999/xlink" version="1.1" x="0" y="0" viewBox="22.875 8.25 54.25 83.001" enable-background="new 0 0 100 100" xml:space="preserve" height="131.15793678551532" width="85.7256909026904" class="icon-dxe-0" data-fill-palette-color="accent" id="dxe-0"><path d="M50 8.25C35.02 8.25 22.875 20.395 22.875 35.375V82.501A8.75 8.75 0 0 0 31.625 91.251C34.844 91.251 37.646 89.507 39.163 86.917H39.173C39.536 86.414 40.124 86.083 40.792 86.083S42.048 86.414 42.411 86.917H42.421C43.939 89.507 46.74 91.251 49.959 91.251 53.177 91.251 55.98 89.507 57.496 86.917H57.506C57.869 86.414 58.457 86.083 59.125 86.083S60.381 86.414 60.744 86.917H60.755C62.272 89.507 65.074 91.251 68.292 91.251A8.75 8.75 0 0 0 77.042 82.501C77.042 78.978 77.125 35.375 77.125 35.375 77.125 20.395 64.98 8.25 50 8.25M30.667 34.167A8.23 8.23 0 0 1 33.854 27.663L36.631 30.215C35.263 31.008 34.333 32.472 34.333 34.167A4.584 4.584 0 0 0 38.917 38.751 4.57 4.57 0 0 0 43.052 36.116L45.827 38.666A8.23 8.23 0 0 1 38.917 42.417 8.25 8.25 0 0 1 30.667 34.167M50 60.396C42.873 60.396 36.981 55.126 36 48.271H40.034L44 54 46.864 48.272H52.635L55.5 54 59.466 48.272H64C63.019 55.127 57.127 60.396 50 60.396M61.084 42.417C58.128 42.417 55.543 40.857 54.086 38.522L56.829 35.851A4.578 4.578 0 0 0 65.668 34.167 4.58 4.58 0 0 0 62.887 29.953L65.628 27.284A8.249 8.249 0 0 1 61.084 42.417" fill="#ffffff" data-fill-palette-color="accent"></path></svg></g></svg></g></svg></g></svg></g></svg></g><defs></defs></svg><rect width="395.5199999999999" height="134.54215448027998" fill="none" stroke="none" visibility="hidden"></rect></g></svg></g></svg>