<?xml version="1.0" encoding="utf-8"?>
<!-- Generator: Adobe Illustrator 24.0.2, SVG Export Plug-In . SVG Version: 6.00 Build 0)  -->
<svg version="1.1" id="dxe-0" xmlns:svgjs="http://svgjs.dev/svgjs"
	 xmlns="http://www.w3.org/2000/svg" xmlns:xlink="http://www.w3.org/1999/xlink" x="0px" y="0px" viewBox="0 0 509.2 509.3"
	 style="enable-background:new 0 0 509.2 509.3;" xml:space="preserve">
<style type="text/css">
	.st0{fill:#FFFFFF;}
	.st1{clip-path:url(#SVGID_2_);}
	.st2{display:none;fill:none;}
</style>
<polygon class="st0" points="486.8,-49.7 470.9,-49.7 470.9,-49.7 "/>
<g>
	<g>
		<defs>
			<rect id="SVGID_1_" x="-8.9" y="0.3" width="511.9" height="511.9"/>
		</defs>
		<clipPath id="SVGID_2_">
			<use xlink:href="#SVGID_1_"  style="overflow:visible;"/>
		</clipPath>
		<g transform="matrix(1,0,0,1,-0.9090909090911055,-0.8665150391738337)" class="st1">
			<g id="tight-bounds" transform="matrix(1,0,0,1,0.24000000000003752,0.2289227598600121)">
				<g>
					<g>
						<g id="icon-0">
							<g>
								<path class="st0" d="M-7.3,257.8c0-140.6,114-254.6,254.6-254.6s254.6,114,254.6,254.6S388,512.5,247.4,512.5
									S-7.3,398.5-7.3,257.8z M247.4,493.1c130,0,235.3-105.4,235.3-235.3S377.3,22.5,247.4,22.5S12,127.9,12,257.8
									S117.4,493.1,247.4,493.1z"/>
							</g>
							<g transform="matrix(1,0,0,1,70.72038875869669,48.00426581728422)">
								<g>
									<path class="st0" d="M176.6,62.8c-53.1,0-96.1,43-96.1,96.1v166.9c0,17.1,13.9,31,31,31l0,0c11.4,0,21.3-6.2,26.7-15.4l0,0
										c1.3-1.8,3.4-3,5.7-3s4.4,1.2,5.7,3l0,0c5.4,9.2,15.3,15.4,26.7,15.4s21.3-6.2,26.7-15.4l0,0c1.3-1.8,3.4-3,5.7-3
										s4.4,1.2,5.7,3l0,0c5.4,9.2,15.3,15.4,26.7,15.4c17.1,0,31-13.9,31-31l0,0c0-12.5,0.3-166.9,0.3-166.9
										C272.7,105.8,229.7,62.8,176.6,62.8 M108.1,154.6c0-9,4.2-17.5,11.3-23l9.8,9c-4.8,2.8-8.1,8-8.1,14
										c0,9,7.3,16.2,16.2,16.2c6.3,0,12-3.6,14.6-9.3l9.8,9c-5.4,8.3-14.6,13.3-24.5,13.3C121.2,183.9,108.1,170.8,108.1,154.6
										 M176.6,247.5c-25.2,0-46.1-18.7-49.6-43h14.3l14,20.3l10.1-20.3H186l10.1,20.3l14-20.3h16.1
										C222.8,228.9,201.9,247.5,176.6,247.5 M215.9,183.9c-10.5,0-19.6-5.5-24.8-13.8l9.7-9.5c3.3,8.3,12.7,12.4,21,9.2
										c6.2-2.4,10.3-8.4,10.3-15.1c0-6.5-3.9-12.4-9.9-14.9l9.7-9.5c13.5,8.9,17.2,27,8.3,40.5
										C234.9,178.9,225.7,183.9,215.9,183.9"/>
								</g>
							</g>
						</g>
					</g>
				</g>
				<rect x="-7.3" y="3.2" class="st2" width="1497.1" height="509.3"/>
			</g>
		</g>
	</g>
</g>
</svg>
