<svg id="Layer_1" data-name="Layer 1" xmlns="http://www.w3.org/2000/svg" xmlns:xlink="http://www.w3.org/1999/xlink" viewBox="0 0 509.2 509.3"><defs><style>.cls-1{fill:none;}.cls-2{clip-path:url(#clip-path);}.cls-3{fill:#fff;}</style><clipPath id="clip-path" transform="translate(0.01 -1.63)"><rect id="SVGID" class="cls-1" x="-0.95" y="-0.6" width="511.9" height="511.9"/></clipPath></defs><title>wrvsdavsdvsvdscasvsc</title><g class="cls-2"><g id="tight-bounds"><g id="icon-0"><path class="cls-3" d="M0,256.23C0,115.63,114,1.63,254.59,1.63s254.6,114,254.6,254.6-113.9,254.7-254.5,254.7S0,396.93,0,256.23Zm254.7,235.3c130,0,235.3-105.4,235.3-235.3s-105.4-235.3-235.3-235.3-235.4,105.4-235.4,235.3S124.69,491.53,254.69,491.53Z" transform="translate(0.01 -1.63)"/><path class="cls-3" d="M254.61,109.23a96.07,96.07,0,0,0-96.1,96.1v166.9a31,31,0,0,0,31,31h0a30.93,30.93,0,0,0,26.7-15.4h0a6.92,6.92,0,0,1,11.4,0h0a30.85,30.85,0,0,0,53.4,0h0a6.92,6.92,0,0,1,11.4,0h0a30.94,30.94,0,0,0,57.7-15.6h0c0-12.5.3-166.9.3-166.9a95.62,95.62,0,0,0-95.8-96.1M186.11,201a29.14,29.14,0,0,1,11.3-23l9.8,9a16.18,16.18,0,0,0,8.1,30.2,16,16,0,0,0,14.6-9.3l9.8,9a29.14,29.14,0,0,1-53.6-15.9m68.5,92.9a50.2,50.2,0,0,1-49.6-43h14.3l14,20.3,10.1-20.3H264l10.1,20.3,14-20.3h16.1a50,50,0,0,1-49.6,43m39.3-63.6a29.15,29.15,0,0,1-24.8-13.8l9.7-9.5a16.2,16.2,0,0,0,31.3-5.9,16.15,16.15,0,0,0-9.9-14.9l9.7-9.5a29.21,29.21,0,0,1-16,53.6" transform="translate(0.01 -1.63)"/></g></g></g></svg>